<?xml version="1.0" encoding="UTF-8" standalone="no"?><!DOCTYPE svg PUBLIC "-//W3C//DTD SVG 1.1//EN" "http://www.w3.org/Graphics/SVG/1.1/DTD/svg11.dtd"><svg width="100%" height="100%" viewBox="0 0 522 561" version="1.1" xmlns="http://www.w3.org/2000/svg" xmlns:xlink="http://www.w3.org/1999/xlink" xml:space="preserve" xmlns:serif="http://www.serif.com/" style="fill-rule:evenodd;clip-rule:evenodd;stroke-linecap:round;stroke-linejoin:round;stroke-miterlimit:1.5;"><g><g><path d="M182.718,144.233l-20.632,-139.284l31.956,17.568l29.33,-22.396l31.732,23.967l31.335,-17.975l-23.511,137.811l-80.211,0.31Z" style="fill:#5face6;stroke:#000;stroke-width:0.24px;"/><path d="M247.728,138.745l83.9,-113.078l10.174,35.019l36.576,4.903l5.491,39.385l34.868,9.447l-114.072,80.822l-56.937,-56.498Z" style="fill:#5face6;stroke:#000;stroke-width:0.24px;"/><path d="M297.513,186.963l138.517,-25.275l-16.49,32.525l23.364,28.565l-22.893,32.515l19.013,30.717l-138.519,-18.892l-2.991,-80.155Z" style="fill:#5face6;stroke:#000;stroke-width:0.24px;"/><path d="M299.461,247.979l113.078,83.9l-35.019,10.174l-4.903,36.576l-39.385,5.491l-9.447,34.868l-80.822,-114.072l56.498,-56.937Z" style="fill:#5face6;stroke:#000;stroke-width:0.24px;"/><path d="M257.372,297.828l20.632,139.284l-31.956,-17.568l-29.33,22.396l-31.732,-23.967l-31.335,17.975l23.511,-137.811l80.211,-0.31Z" style="fill:#5face6;stroke:#000;stroke-width:0.24px;"/><path d="M188.074,298.936l-80.074,115.818l-11.339,-34.659l-36.719,-3.677l-6.804,-39.18l-35.164,-8.276l111.307,-84.589l58.793,54.564Z" style="fill:#5face6;stroke:#000;stroke-width:0.24px;"/><path d="M144.233,258.981l-139.284,20.632l17.568,-31.956l-22.396,-29.33l23.967,-31.732l-17.975,-31.335l137.811,23.511l0.31,80.211Z" style="fill:#5face6;stroke:#000;stroke-width:0.24px;"/><path d="M143.125,189.682l-115.818,-80.074l34.659,-11.339l3.677,-36.719l39.18,-6.804l8.276,-35.164l84.589,111.307l-54.564,58.793Z" style="fill:#5face6;stroke:#000;stroke-width:0.24px;"/></g><g><g><path d="M214.208,167.009l29.469,-105.004l17.037,22.529l27.821,-6.558l14.855,26.983l27.841,-2.797l-60.214,90l-56.81,-25.152Z" style="fill:#282b53;stroke:#000;stroke-width:0.24px;"/><path d="M261.908,183.693l95.087,-53.411l-3.883,27.977l24.31,15.035l-8.576,29.583l21.665,17.708l-106.217,21.062l-22.385,-57.955Z" style="fill:#282b53;stroke:#000;stroke-width:0.24px;"/><path d="M281.855,233.532l105.931,25.943l-21.947,17.781l7.484,27.586l-26.471,15.748l3.726,27.732l-91.962,-57.172l23.239,-57.618Z" style="fill:#282b53;stroke:#000;stroke-width:0.24px;"/><path d="M263.933,277.288l53.411,95.087l-27.977,-3.883l-15.035,24.31l-29.583,-8.576l-17.708,21.665l-21.062,-106.217l57.955,-22.385Z" style="fill:#282b53;stroke:#000;stroke-width:0.24px;"/><path d="M218.407,299.22l-29.469,105.004l-17.037,-22.529l-27.821,6.558l-14.855,-26.983l-27.841,2.797l60.214,-90l56.81,25.152Z" style="fill:#282b53;stroke:#000;stroke-width:0.24px;"/><path d="M169.061,278.084l-93.249,56.559l2.946,-28.092l-24.798,-14.215l7.582,-29.854l-22.244,-16.974l105.454,-24.6l24.31,57.175Z" style="fill:#282b53;stroke:#000;stroke-width:0.24px;"/><path d="M150.702,235.967l-105.004,-29.469l22.529,-17.037l-6.558,-27.821l26.983,-14.855l-2.797,-27.841l90,60.214l-25.152,56.81Z" style="fill:#282b53;stroke:#000;stroke-width:0.24px;"/><path d="M171.838,186.62l-56.559,-93.249l28.092,2.946l14.215,-24.798l29.854,7.582l16.974,-22.244l24.6,105.454l-57.175,24.31Z" style="fill:#282b53;stroke:#000;stroke-width:0.24px;"/></g><path d="M216.248,154.547c47.266,0 85.64,37.989 85.64,84.78c0,46.791 -38.374,84.78 -85.64,84.78c-47.266,0 -85.64,-37.989 -85.64,-84.78c0,-46.791 38.374,-84.78 85.64,-84.78Zm0,42.39c23.633,0 42.82,18.994 42.82,42.39c0,23.396 -19.187,42.39 -42.82,42.39c-23.633,0 -42.82,-18.994 -42.82,-42.39c0,-23.396 19.187,-42.39 42.82,-42.39Z" style="fill:#282b53;"/></g><ellipse cx="212.915" cy="236.294" rx="48.313" ry="46.862" style="fill:#fff;"/></g><g><path d="M191.886,369.735c-7.19,-5.076 -16.555,-13.517 -17.864,-28.869c-1.309,-15.353 9.828,-63.375 28.227,-81.706c18.398,-18.33 68.729,-34.631 83.908,-48.45c15.179,-13.82 34.353,-9.26 43.94,-5.148c9.587,4.111 27.163,60.034 27.163,60.034c0,0 6.391,64.032 4.793,78.352c-1.598,14.32 -11.185,36.13 -11.185,36.13l-46.336,9.347l-78.116,-9.347c0,0 -27.339,-5.267 -34.529,-10.343Z" style="fill:#ed1b24;stroke:#000;stroke-width:0.24px;"/><path d="M332.459,229.151l12.402,-18.136c0,0 19.174,-3.756 35.951,-0c16.777,3.756 39.146,6.153 49.532,14.142c10.386,7.989 23.967,26.364 29.559,34.353c5.592,7.989 26.364,23.168 29.559,33.554c3.196,10.386 13.581,37.097 10.386,48.108c-3.196,11.011 -3.196,13.408 -15.978,19c-12.782,5.592 -35.951,11.749 -59.119,9.869c-23.168,-1.88 -39.945,1.081 -59.119,0c-19.174,-1.081 -22.407,6.908 -33.173,-8.271c-10.766,-15.179 -1.217,-24.766 0,-39.945c1.217,-15.179 5.973,-40.744 0,-54.325c-5.973,-13.581 0,-38.347 0,-38.347Z" style="fill:#ed1b24;stroke:#000;stroke-width:0.24px;"/><path d="M504.335,382.868c7.572,6.503 17.238,17.038 17.066,34.511c-0.172,17.473 -17.905,70.491 -40.645,89.208c-22.74,18.717 -81.312,31.711 -99.933,45.682c-18.621,13.971 -39.777,6.762 -50.158,1.091c-10.381,-5.671 -24.215,-70.694 -24.215,-70.694c0,0 -0.335,-72.975 3.007,-88.97c3.342,-15.995 16.509,-39.587 16.509,-39.587l53.315,-5.574l87.184,18.946c0,0 30.298,8.884 37.87,15.387Z" style="fill:#ed1b24;stroke:#000;stroke-width:0.24px;"/><path d="M325.341,521.482l-14.95,19.144c0,0 -20.516,2.307 -37.713,-3.589c-17.198,-5.896 -40.408,-10.823 -50.448,-20.838c-10.041,-10.015 -22.322,-32.021 -27.335,-41.557c-5.012,-9.537 -25.179,-28.669 -27.42,-40.66c-2.241,-11.991 -10.28,-43.046 -5.749,-55.101c4.53,-12.055 4.786,-14.749 18.794,-19.757c14.007,-5.009 38.97,-9.615 63.073,-5.189c24.103,4.426 42.02,2.773 62.018,5.902c19.998,3.129 24.245,-5.526 33.915,12.607c9.671,18.133 -1.372,27.954 -4.272,44.891c-2.901,16.937 -10.624,45.192 -5.811,61.052c4.813,15.859 -4.102,43.095 -4.102,43.095Z" style="fill:#ed1b24;stroke:#000;stroke-width:0.24px;"/><path d="M327.007,318.208c-6.493,1.082 -4.145,4.629 -10.226,7.669c-1.084,0.542 -12.181,3.609 -12.271,4.602c-0.649,7.137 -1.099,8.094 -9.203,9.715c-0.359,1.076 -3.886,11.658 -6.136,12.782c-12.6,6.3 4.35,14.186 -2.045,17.384c-6.183,3.092 2.225,10.461 2.556,12.782c0.906,6.342 -1.083,8.161 5.113,10.226c7.852,2.617 9.81,1.879 10.737,10.226c0.19,1.709 14.545,5.298 15.85,5.624c18.407,4.602 19.72,1.975 20.452,0.511c2.18,-4.36 2.139,1.374 3.579,1.534c11.343,1.26 10.772,-16.838 17.384,-10.226c3.501,3.501 3.543,-1.498 5.624,-3.579c2.989,-2.989 -2.96,-13.495 5.624,-9.203c7.054,3.527 8.02,-3.229 5.113,-6.136c-3.111,-3.111 7.448,-7.38 2.045,-12.782c-4.896,-4.896 5.926,-7.506 6.136,-10.226c1.363,-17.722 -9.859,-13.264 -12.198,-12.782c-1.424,-9.97 -1.235,-11.295 -1.096,-12.271c0.828,-5.798 -4.166,-1.61 -8.692,-6.136c-3.954,-3.954 -5.892,-2.07 -7.669,-5.624c-4.726,-9.452 -19.098,-2.225 -21.474,-4.602c-3.686,-3.686 -8.855,0.326 -9.203,1.023" style="fill:#231f20;stroke:#000;stroke-width:0.24px;"/></g></svg>