<!DOCTYPE svg PUBLIC "-//W3C//DTD SVG 1.1//EN" "http://www.w3.org/Graphics/SVG/1.1/DTD/svg11.dtd">
<!-- Uploaded to: SVG Repo, www.svgrepo.com, Transformed by: SVG Repo Mixer Tools -->
<svg width="800px" height="800px" viewBox="0 0 1024 1024" class="icon" version="1.1" xmlns="http://www.w3.org/2000/svg" fill="#000000">
<g id="SVGRepo_bgCarrier" stroke-width="0"/>
<g id="SVGRepo_tracerCarrier" stroke-linecap="round" stroke-linejoin="round"/>
<g id="SVGRepo_iconCarrier">
<path d="M731.4 146.3V73.1h-73.1v73.1H365.7V73.1h-73.1v73.1H109.7v804.6h804.6V146.3H731.4z m-438.8 73.1v73.1h73.1v-73.1h292.6v73.1h73.1v-73.1h109.7v146.3H182.9V219.4h109.7zM182.9 877.7V438.9h658.3v438.9H182.9z" fill="#6e4e22"/>
<path d="M402.3 512h73.1v73.1h-73.1zM548.6 512h73.1v73.1h-73.1zM694.9 512H768v73.1h-73.1zM256 621.7h73.1v73.1H256zM402.3 621.7h73.1v73.1h-73.1zM548.6 621.7h73.1v73.1h-73.1zM694.9 621.7H768v73.1h-73.1zM256 731.4h73.1v73.1H256zM402.3 731.4h73.1v73.1h-73.1zM548.6 731.4h73.1v73.1h-73.1z" fill="#6e4e22"/>
</g>
</svg>